<svg id="car" xmlns="http://www.w3.org/2000/svg" width="76.146" height="76.146" viewBox="0 0 76.146 76.146">
  <path id="Trazado_11" data-name="Trazado 11" d="M0,0H76.146V76.146H0Z" fill="none"/>
  <path id="Trazado_12" data-name="Trazado 12" d="M11.346,21.346,5,21.346A6.346,6.346,0,1,0,11.346,15,6.346,6.346,0,0,0,5,21.346" transform="translate(10.864 32.591)" fill="none" stroke="#d60e2b" stroke-linecap="round" stroke-linejoin="round" stroke-width="4"/>
  <path id="Trazado_13" data-name="Trazado 13" d="M21.346,21.346m-6.346,0A6.346,6.346,0,1,0,21.346,15,6.346,6.346,0,0,0,15,21.346" transform="translate(32.591 32.591)" fill="none" stroke="#d60e2b" stroke-linecap="round" stroke-linejoin="round" stroke-width="4"/>
  <path id="Trazado_14" data-name="Trazado 14" d="M9.346,40.9H3V21.864L9.346,6H37.9L50.591,21.864h3.173a6.346,6.346,0,0,1,6.346,6.346V40.9H53.764m-12.691,0H22.037M3,21.864H50.591m-19.037,0V6" transform="translate(6.518 13.037)" fill="none" stroke="#d60e2b" stroke-linecap="round" stroke-linejoin="round" stroke-width="4"/>
</svg>
