<svg xmlns="http://www.w3.org/2000/svg" width="51.269" height="51.269" viewBox="0 0 51.269 51.269">
  <g id="layer1" transform="translate(-86.366 -1070.727)">
    <path id="path58241-7" d="M27,1025.73a23.761,23.761,0,0,0-4.727.48v3.656a19.863,19.863,0,0,0-5.724,2.364l-2.585-2.585a25.383,25.383,0,0,0-6.684,6.684l2.585,2.585a19.859,19.859,0,0,0-2.363,5.724H3.848a23.512,23.512,0,0,0,0,9.454H7.5a19.857,19.857,0,0,0,2.363,5.724L7.283,1062.4a25.387,25.387,0,0,0,6.684,6.684l2.585-2.585a19.849,19.849,0,0,0,5.724,2.364v3.656a23.5,23.5,0,0,0,9.454,0v-3.656a19.85,19.85,0,0,0,5.724-2.364l2.585,2.585a25.387,25.387,0,0,0,6.684-6.684l-2.585-2.585a19.856,19.856,0,0,0,2.363-5.724h3.656a23.512,23.512,0,0,0,0-9.454H46.5a19.864,19.864,0,0,0-2.363-5.724l2.585-2.585a25.383,25.383,0,0,0-6.684-6.684l-2.585,2.585a19.863,19.863,0,0,0-5.724-2.364v-3.656a23.707,23.707,0,0,0-4.727-.48Zm0,11.817a11.817,11.817,0,1,1-11.817,11.817A11.821,11.821,0,0,1,27,1037.547Z" transform="translate(84.997 46.997)" fill="none" stroke="#d60e2b" stroke-width="4"/>
  </g>
</svg>
