<svg id="gauge" xmlns="http://www.w3.org/2000/svg" width="61.291" height="61.291" viewBox="0 0 61.291 61.291">
  <path id="Trazado_15" data-name="Trazado 15" d="M0,0H61.291V61.291H0Z" fill="none"/>
  <path id="Trazado_16" data-name="Trazado 16" d="M26.737,26.737,3,26.737A23.737,23.737,0,1,0,26.737,3,23.737,23.737,0,0,0,3,26.737" transform="translate(3.909 3.909)" fill="none" stroke="#d60e2b" stroke-linecap="round" stroke-linejoin="round" stroke-width="4"/>
  <path id="Trazado_17" data-name="Trazado 17" d="M13.554,13.554m-2.554,0A2.554,2.554,0,1,0,13.554,11,2.554,2.554,0,0,0,11,13.554" transform="translate(17.092 17.092)" fill="none" stroke="#d60e2b" stroke-linecap="round" stroke-linejoin="round" stroke-width="4"/>
  <path id="Trazado_18" data-name="Trazado 18" d="M13.41,14.614,20.024,8" transform="translate(20.836 12.43)" fill="none" stroke="#d60e2b" stroke-linecap="round" stroke-linejoin="round" stroke-width="4"/>
  <path id="Trazado_19" data-name="Trazado 19" d="M7,19.769A12.769,12.769,0,0,1,19.769,7" transform="translate(10.877 10.877)" fill="none" stroke="#d60e2b" stroke-linecap="round" stroke-linejoin="round" stroke-width="4"/>
</svg>
